# xmcd
#
# Track frame offsets: 
#        150
#        17791
#        38902
#        57523
#        82301
#        101537
#        116672
#        130354
#        146876
#
# Disc length: 2196 seconds
#
# Revision: 0
# Processed by: cddbd v1.5.2PL0 Copyright (c) Steve Scherf et al.
# Submitted via: ExactAudioCopy v0.95b3
#
DISCID=86089209
DTITLE=Black Oak Arkansas  - X-Rated - 1975 - 256K
DYEAR=1900
DGENRE=
TTITLE0=Bump 'N' Grind
TTITLE1=Fightin' Cock
TTITLE2=Highway Pirate
TTITLE3=Strong Enough To Be Gentle
TTITLE4=Flesh Needs Flesh
TTITLE5=Wild Men From The Mountains
TTITLE6=High Flyer
TTITLE7=Ace In The Hole
TTITLE8=Too Hot To Stop
EXTD=
EXTT0=
EXTT1=
EXTT2=
EXTT3=
EXTT4=
EXTT5=
EXTT6=
EXTT7=
EXTT8=
PLAYORDER=
